<?xml version="1.0" encoding="iso-8859-1"?>
<!-- Generator: Adobe Illustrator 18.0.0, SVG Export Plug-In . SVG Version: 6.00 Build 0)  -->
<!DOCTYPE svg PUBLIC "-//W3C//DTD SVG 1.1//EN" "http://www.w3.org/Graphics/SVG/1.1/DTD/svg11.dtd">
<svg version="1.1" id="Layer_1" xmlns="http://www.w3.org/2000/svg" xmlns:xlink="http://www.w3.org/1999/xlink" x="0px" y="0px"
	 viewBox="0 0 265.5 354.217" style="enable-background:new 0 0 265.5 354.217;" xml:space="preserve">
<g>
	<g>
		<path style="fill-rule:evenodd;clip-rule:evenodd;fill:#2C3E50;" d="M15,0h162l88.5,88.499v250.718c0,8.26-6.74,15-15,15H15
			c-8.26,0-15-6.738-15-15V14.999C0,6.737,6.738,0,15,0z"/>
		<path style="opacity:0.2;fill-rule:evenodd;clip-rule:evenodd;" d="M265.5,327.217v12c0,8.262-6.738,15-15,15H15
			c-8.262,0-15-6.738-15-15v-12c0,8.262,6.738,15,15,15h235.5C258.76,342.217,265.5,335.477,265.5,327.217z"/>
		<rect x="44.25" y="111.699" style="fill-rule:evenodd;clip-rule:evenodd;fill:#57BC82;" width="88.5" height="17.559"/>
		<rect x="66.144" y="149.453" style="fill-rule:evenodd;clip-rule:evenodd;fill:#F16A5C;" width="155.105" height="17.557"/>
		<rect x="66.144" y="187.205" style="fill-rule:evenodd;clip-rule:evenodd;fill:#DFC245;" width="155.105" height="17.559"/>
		<rect x="44.25" y="224.959" style="fill-rule:evenodd;clip-rule:evenodd;fill:#008ECF;" width="88.5" height="17.557"/>
		<polygon style="opacity:0.1;fill-rule:evenodd;clip-rule:evenodd;fill:#FFFFFF;" points="177,0 265.5,88.499 177,88.499 		"/>
		<polygon style="opacity:0.2;fill-rule:evenodd;clip-rule:evenodd;" points="265.5,176.999 177,88.499 265.5,88.499 		"/>
		<rect x="66.144" y="149.453" style="fill-rule:evenodd;clip-rule:evenodd;fill:#F16A5C;" width="110.855" height="17.557"/>
	</g>
</g>
</svg>
