<?xml version="1.0" encoding="iso-8859-1"?>
<!-- Generator: Adobe Illustrator 18.0.0, SVG Export Plug-In . SVG Version: 6.00 Build 0)  -->
<!DOCTYPE svg PUBLIC "-//W3C//DTD SVG 1.1//EN" "http://www.w3.org/Graphics/SVG/1.1/DTD/svg11.dtd">
<svg version="1.1" id="Layer_1" xmlns="http://www.w3.org/2000/svg" xmlns:xlink="http://www.w3.org/1999/xlink" x="0px" y="0px"
	 viewBox="0 0 265.5 354.217" style="enable-background:new 0 0 265.5 354.217;" xml:space="preserve">
<g>
	<g>
		<path style="fill-rule:evenodd;clip-rule:evenodd;fill:#F16A5C;" d="M15,0h162l88.5,88.499v250.718c0,8.26-6.738,15-15,15H15
			c-8.26,0-15-6.738-15-15V14.999C0,6.737,6.738,0,15,0z"/>
		<path style="opacity:0.2;fill-rule:evenodd;clip-rule:evenodd;" d="M265.5,327.217v12c0,8.262-6.738,15-15,15H15
			c-8.262,0-15-6.738-15-15v-12c0,8.262,6.74,15,15,15h235.5C258.762,342.217,265.5,335.477,265.5,327.217z"/>
		<polygon style="opacity:0.1;fill-rule:evenodd;clip-rule:evenodd;fill:#FFFFFF;" points="177,0 265.5,88.499 177,88.499 		"/>
		<polygon style="opacity:0.2;fill-rule:evenodd;clip-rule:evenodd;" points="265.5,176.999 177,88.499 265.5,88.499 		"/>
		<path style="fill-rule:evenodd;clip-rule:evenodd;fill:#FFFFFF;" d="M66.145,186.527l45.445,21.113v-10.035l-34.367-15.055v-0.189
			l34.367-15.054v-10.036l-45.445,21.113V186.527L66.145,186.527z M128.158,211.428l20.262-68.641h-9.563l-20.262,68.641H128.158
			L128.158,211.428z M199.357,178.102l-45.445-20.829v10.036l35.125,15.054v0.189l-35.125,15.055v10.035l45.445-20.828V178.102z"/>
	</g>
</g>
</svg>
